<?xml version="1.0" encoding="utf-8"?>
<!-- Generator: Adobe Illustrator 16.0.4, SVG Export Plug-In . SVG Version: 6.00 Build 0)  -->
<!DOCTYPE svg PUBLIC "-//W3C//DTD SVG 1.1//EN" "http://www.w3.org/Graphics/SVG/1.1/DTD/svg11.dtd">
<svg version="1.1" id="Layer_1" xmlns="http://www.w3.org/2000/svg" xmlns:xlink="http://www.w3.org/1999/xlink" x="0px" y="0px"
	 width="63.437px" height="123px" viewBox="0 0 63.437 123" enable-background="new 0 0 63.437 123" xml:space="preserve">
<path fill="#B72E3F" d="M4.675,121.652c0.195,0.586,0.586,0.879,1.227,0.879c1.273,0,2.156-0.684,2.5-1.957
	c0.098-0.344,0.098-0.633,0-0.879l-0.098-0.492c-1.473-3.961-2.207-9.832-2.305-17.562c-0.052-8.367,0.785-15.609,2.5-21.727
	c2.211-7.781,5.598-14.68,10.109-20.551c2.257-3.133,7.164-8.418,14.671-15.902c6.235-6.164,9.767-10.863,10.7-14.043
	c1.473-5.285,0.293-7.926-3.535-7.926c-3.973,0-8.242,2.399-12.66,7.192C18.511,38.715,10.659,55.008,4.279,77.469
	c-2.405,8.66-3.237,18.102-2.405,28.477c0.59,6.508,1.426,11.547,2.602,15.215L4.675,121.652z"/>
<path fill="#B72E3F" d="M35.933,96.746c-0.59,0.734-1.129,1.125-1.523,1.125c-0.883,0-1.227-0.441-0.98-1.371
	c0.051-0.047,0.098-0.145,0.195-0.242l0.246-0.492c5.988-10.077,9.52-17.125,10.648-21.086c0.883-3.184,1.277-5.922,1.129-8.32
	c-4.368,4.406-7.801,7.438-10.355,9.051c-2.552,1.617-5.004,2.449-7.457,2.449c-4.906,0-6.82-1.957-5.691-5.871
	c1.078-3.816,4.316-7.195,9.715-10.129C42.456,56.23,49.327,47.766,52.468,36.66c1.914-6.754,1.766-12.969-0.441-18.594
	c-1.375-3.718-4.562-8.711-9.668-14.972l-0.246-0.391c-0.195-0.246-0.242-0.59-0.098-0.98c0.199-0.782,0.738-1.223,1.57-1.223
	c0.395,0,0.641,0.098,0.737,0.242l0.442,0.246c0,0,0,0.051,0.098,0.149c7.117,6.164,11.824,13.015,14.082,20.5
	c2.503,8.465,2.062,18.547-1.273,30.242c-3.34,11.84-6.527,20.844-9.57,26.961c-2.648,5.332-6.672,11.301-12.023,17.809
	L35.933,96.746z"/>
</svg>
